<?xml version="1.0" encoding="UTF-8"?>
<svg id="Layer_1" xmlns="http://www.w3.org/2000/svg" version="1.1" viewBox="0 0 118.1 165.4">
  <!-- Generator: Adobe Illustrator 29.0.0, SVG Export Plug-In . SVG Version: 2.1.0 Build 186)  -->
  <defs>
    <style>
      .st0 {
        fill: #6479e2;
        stroke-width: 3px;
      }

      .st0, .st1 {
        stroke: #2a9cae;
        stroke-miterlimit: 10;
      }

      .st2 {
        fill: #202020;
      }

      .st1 {
        fill: none;
        stroke-width: 10px;
      }

      .st3 {
        fill: #2a9cae;
      }
    </style>
  </defs>
  <circle class="st3" cx="59.3" cy="13.4" r="10.2"/>
  <circle class="st1" cx="59.3" cy="105.8" r="49.3"/>
  <line class="st0" x1="59.3" y1="22.1" x2="59.3" y2="52.7"/>
  <g>
    <path class="st2" d="M72.4,100.4c6.2.8,9.1,8.4,5.2,13.2l2.2,2.2c.5,0,.9-.1,1.4,0s.8.3,1.1.6c1.4,1.9,3.9,3.5,5.2,5.3s-1,4.9-3.3,2.9-3.4-3.8-5.2-5.4c-.5-.8-.3-1.4-.3-2.3l-2.1-2.2c-1.2.9-2.6,1.7-4.1,1.8,0,2.8.7,6.5-2.9,7.4-8.5.3-17.1,0-25.6.1-1.9-.2-3.5-1.6-3.6-3.5v-34.6c.2-1.9,1.6-3.4,3.5-3.5h19.5c0,0,9,8.4,9,8.4v9.6ZM62.1,84.1h-18.5s-.6.2-.6.3c-.7.3-1,1-1.1,1.8v34.4c.1,1.2,1,2,2.1,2h24.5c3.2-.2,2-3.7,2.2-5.9-2,0-3.8-.9-5.2-2.3h-6.5v-1.6h5.3c-.7-1.1-1.1-2.3-1.2-3.6h-4.1v-1.6h4.1c0-1.2.5-2.2,1-3.3h-5.1v-1.6h6.3c1.4-1.4,3.3-2.4,5.4-2.5v-8.3h-6.6c-.8,0-2-1.5-2-2.2v-5.7ZM69.5,90.4l-5.8-5.3v4.5c0,.2.5.7.7.7h5ZM70.4,102c-8.2.9-7.2,14,1.6,13.2s7.3-14.2-1.6-13.2ZM80.5,117.4c-.5.1-.5.8-.2,1.1l5,5c.5.5,1.3-.1.9-.7l-5.1-5.2c-.2-.2-.5-.3-.7-.2Z"/>
    <path class="st2" d="M56.1,114.2c-.1.1-.5.2-.7.2-3.1.3-6.5-.2-9.6,0-.6,0-.9-.2-.9-.8-.3-3.3.2-7.1,0-10.5,0-.3.1-.5.3-.7h10.9s.3.7.3.7c-.2,3.4.3,7.1,0,10.4s0,.6-.2.7ZM54.7,103.8h-8.3v9h8.3v-9Z"/>
    <rect class="st2" x="45.6" y="117.6" width="21.5" height="1.6"/>
    <path class="st2" d="M49,89.7c-1.2-.7-2.2.3-1.6,1.5s1.6.1,1.7.2l.2.5c.4-.6.9-2.7,1.3-3.1s.5,0,.8-.1l1.3,3.2.2-.6c.3.2,1.4.5,1.5,0s-1.6-.4-1.6-1.6,1.6-1.4,2.4-.8l-.3.7c-.4-.2-.8-.3-1.2-.2.1.9,1.5.5,1.6,1.6s-.9,1.3-1.8,1.2-.5-.2-.6-.2,0,.2-.1.2c-.7.2-1,0-1.1-.8h-1.3s-.3.8-.3.8c-.2,0-.5,0-.8,0s0-.2-.1-.2c-.1,0-.4.2-.6.2-3.6.4-2.5-5.1.6-3.5l-.2.8ZM51.3,90.8l-.4-.9-.2.9h.6Z"/>
    <path class="st2" d="M48.4,96.1h-1s0-.5,0-.5l-.2.7c-.3-.3-1.7-.3-1.1.2s1.3.2,1.5,1.1c.3,1.4-1.7,1.7-2.6,1.1l.2-.7c.1,0,1.4.5,1.5,0s-.9-.5-1.1-.7c-1-.6-.5-2.1.8-2s.9.3,1.1.3,0-.2.2-.2c.8-.1,1.9,0,2.7,0v.8c0,0-.9-.1-1,.1v2.7h-.9v-2.9Z"/>
    <path class="st2" d="M53.8,98.9v-3.5c1.4-.4,3.1,0,3.1,1.7s-1.7,2.1-3.1,1.7ZM54.7,98.2c1.7.2,1.7-2.3,0-2.1v2.1Z"/>
    <path class="st2" d="M51.3,95.3v2.5c0,.5,1.1.4,1.1,0v-2.4h.9v2.6s-.2.5-.3.5c-.7,1-2.6.5-2.6-.4v-2.7h.9Z"/>
    <polygon class="st2" points="58 88.7 58 89.5 56.4 89.5 56.4 90 57.8 90 57.8 90.8 56.5 90.9 56.4 91.5 58.1 91.5 58.1 92.3 55.5 92.3 55.5 88.7 58 88.7"/>
    <path class="st2" d="M57.9,97.5l-1.3-2.2h1.1s.7,1.2.7,1.2l.7-1.3h1c.2.1-1.2,2-1.2,2.2v1.4h-.9v-1.4Z"/>
  </g>
</svg>