<?xml version="1.0" encoding="UTF-8"?>
<svg id="Layer_1" xmlns="http://www.w3.org/2000/svg" version="1.1" viewBox="0 0 118.1 165.4">
  <!-- Generator: Adobe Illustrator 29.0.0, SVG Export Plug-In . SVG Version: 2.1.0 Build 186)  -->
  <defs>
    <style>
      .st0 {
        fill: #202020;
      }

      .st1 {
        fill: none;
        stroke-width: 10px;
      }

      .st1, .st2 {
        stroke: #3db76f;
        stroke-miterlimit: 10;
      }

      .st3 {
        fill: #3db76f;
      }

      .st2 {
        fill: #6479e2;
        stroke-width: 3px;
      }
    </style>
  </defs>
  <circle class="st3" cx="59.3" cy="13.4" r="10.2"/>
  <circle class="st1" cx="59.3" cy="105.8" r="49.3"/>
  <line class="st2" x1="59.3" y1="22.1" x2="59.3" y2="52.7"/>
  <g>
    <path class="st0" d="M71,117l-.7.4c-1.4-.6-.4-5.6-.7-7.1s-.8-.7-1.2-1.3c-1.6-2.4,1.3-3.8,2.6-5.4l-1-1.4c-.6-.3,0-.8.2-.9,1-.2,2,1.4,2.6,2l-3.5,3.9.9,1.5c.4.2.7,0,1-.3.6-.4,4.4-4.4,4.4-4.8.1-1.1-4.1-4.8-5.2-5.5h-8.1c0,0-3.7,3.5-3.7,3.5-1,.2-4.1-5-5.4-3.1s3.5,5.5,4.6,5.9c1.9.6,3-2.1,4.5-3,1.4-.3,1.1,5.9.3,6-1.3.3-.8-2.9-.9-3.5-1.5,1-2.1,2.7-4.3,2s-4.9-4.4-5.3-5c-1-2,.4-2.7.3-3.4l-4.6-6.1c0-.5,0-.6.5-.5,1.4.2,3.7,4.8,5.1,5.9s1.5.5,2.3.9,1.6,1.8,2.6,2.4l3.5-2.8c2.3.4,8.2-.7,9.9.3s5.2,5.1,5.1,6.2-3.9,4.7-5,5.7-1.1.4-1.1.5v7.3Z"/>
    <path class="st0" d="M70.3,82.4v3.2s-1.2-.4-1.2-.4l-.2-1.4h-29.4v18.8h10.1c.4,0,.7,1,.5,1.4h-11.5l-.5-.5v-20.6l.5-.5h31.8Z"/>
    <path class="st0" d="M72.8,121.2c.2-1,1.5-2.2,2.5-2.5s6.3-.4,7.6,0,2.7,2,2.7,2.6v5.3l-.5.5-.9-.5v-5.3c0-.7-1.6-1.2-2.3-1.3-1.2-.1-7.7-.4-7.7,1.3v5.3l-.5.5-.9-.5c.2-1.6-.3-3.8,0-5.3Z"/>
    <path class="st0" d="M68.6,127.1v-5.5c0,0-.7-1.2-.9-1.3-.8-.6-7.9-.6-8.7.2s-.7,1.3-.7,1.4v5.1h-1.1v-6.2c0-2.9,8.9-2.7,10.7-1.9s1.9,1.9,2,3.3.5,5.3-1.4,4.8Z"/>
    <path class="st0" d="M54.7,127.1h-1.1v-5.5c0-1.1-1.8-1.5-2.6-1.6-1.5-.1-7.6-.5-7.6,1.6v5.5h-1.1v-6.2c0-.3,1.1-1.5,1.4-1.7,1.7-1,11-1.2,11,1.7v6.2Z"/>
    <path class="st0" d="M47.5,108.7c6.1-1.2,6.9,8.1.6,7.8s-4.8-6.9-.6-7.8ZM50.4,110.5c-2.6-2.1-6.4,1.7-3.6,4.2s6.1-2.2,3.6-4.2Z"/>
    <path class="st0" d="M62.4,108.7c5.3-1.2,6.8,6.3,2.6,7.6-6.2,1.9-7.3-6.5-2.6-7.6ZM62.4,110.1c-2,.6-2.4,4.1.2,5,4.5,1.5,4.8-6.5-.2-5Z"/>
    <path class="st0" d="M81.9,115.6c-4.2,3.7-9.8-3.3-4.8-6.4s8.3,3.4,4.8,6.4ZM78,110.1c-2.9.9-1.3,6.1,1.9,5.1s2.3-6.4-1.9-5.1Z"/>
    <path class="st0" d="M65.6,88.1c5.2-1,5.7,6.1,2,6.9-5.5,1.3-6.3-6.1-2-6.9ZM64.7,89.9c-1.9,1.9,1.2,5.8,3.5,3.3s-1.7-5.1-3.5-3.3Z"/>
  </g>
</svg>