<?xml version="1.0" encoding="UTF-8"?>
<svg id="Layer_1" xmlns="http://www.w3.org/2000/svg" version="1.1" viewBox="0 0 118.1 165.4">
  <!-- Generator: Adobe Illustrator 29.0.0, SVG Export Plug-In . SVG Version: 2.1.0 Build 186)  -->
  <defs>
    <style>
      .st0 {
        fill: #b53e9e;
      }

      .st1 {
        fill: #202020;
      }

      .st2 {
        fill: #6479e2;
        stroke-width: 3px;
      }

      .st2, .st3 {
        stroke: #b53e9e;
        stroke-miterlimit: 10;
      }

      .st3 {
        fill: none;
        stroke-width: 10px;
      }
    </style>
  </defs>
  <circle class="st0" cx="59.3" cy="13.4" r="10.2"/>
  <circle class="st3" cx="59.3" cy="105.8" r="49.3"/>
  <line class="st2" x1="59.3" y1="22.1" x2="59.3" y2="52.7"/>
  <g>
    <path class="st1" d="M57.1,94.9h.1c6.1-3.7,14.1-1.5,17.5,4.7s2,9.9-1.1,13.8l9.5,10.8c2.7,4.5-4.1,9.3-7.3,5l-7.5-11.9c-1.1.4-2.2.7-3.4.8-6.1.6-11.7-3.3-13.3-9.1s-.3-1.5-.4-1.5h-16.2c-1.4,0-2.4-1.2-2.1-2.6,4.3-8.1,8.8-16.2,13.2-24.2.9-1,2.4-.9,3.2.1l7.7,14.1ZM51.1,106.2c-.2-4,1.6-8.1,4.9-10.5h0c0,0-7.6-14.1-7.6-14.1-.4-.6-1.2-.5-1.5.1l-12.7,23.2c-.2.3-.1.7.1,1s.3.2.3.2h16.5ZM63,94.4c-8.9.5-13.7,10.7-8.4,18,5.1,7,15.9,5.7,19.4-2.1s-2.6-16.3-11-15.9ZM69.5,116.7l1.7,2.7,3.6-2.7-2.1-2.3c-.9.9-2,1.8-3.2,2.4ZM75.6,117.7l-3.7,2.7v.2s5.2,8.2,5.2,8.2c2.4,2.3,6.6-.9,4.9-3.9l-6.3-7.2s0,0-.1,0Z"/>
    <path class="st1" d="M47.2,87.5c1.4-.2,2.6.6,2.8,2l-.9,9.5c-.1.3-.4.4-.7.5s-1.7,0-2,0-.4-.7-.4-1c-.3-2.9-.5-5.8-.8-8.7,0-1.1,1-2,2-2.2ZM48,98.1l.8-8.5c-.3-1.5-2.6-1.2-2.3.4l.8,8h.7Z"/>
    <path class="st1" d="M47.2,100.8c2.4-.4,3,2.9,1,3.5s-2.9-1.1-2.2-2.6.8-.8,1.2-.9ZM47.5,102.1c-.4.1-.5.9,0,1,1,.3,1-1.3,0-1Z"/>
    <path class="st1" d="M70.8,98.8c5.4,5.6,2.5,15-5,16.6s-14-5.7-11.4-13,11.4-8.9,16.5-3.6ZM62.8,97.1c-4.7.4-8.2,4.9-7.7,9.5.7,6.9,9,10.2,14.2,5.6s1.9-15.8-6.6-15.1Z"/>
    <path class="st1" d="M66.1,105.1c.1-.7,1.2-.8,1.3.2s0,3,0,4.4,0,.3,0,.3c.3,0,.6,0,.8.4s-.1.9-.6.9h-8.6c-.8-.5-.4-1.4.5-1.3.1-.7-.4-2.6.7-2.5s.6.2.6.4v2h0c0,0,1.9,0,1.9,0v-2.1c0-.2.3-.5.6-.5s.7.2.7.4v2.1h0c0,0,1.9,0,1.9,0v-4.9Z"/>
    <path class="st1" d="M66.9,102.2l-3.2,3.1c-.2,0-.4,0-.6,0l-1.4-1.3-2.9,2.9c-.7.4-1.4-.2-.9-.9.9-.9,1.8-1.8,2.7-2.7s.8-1.1,1.4-.8.9,1,1.2,1.2h.1s2.5-2.4,2.5-2.4h0c-.4,0-1.1,0-1.2-.6s.2-.7.6-.7,1.8,0,2.3,0,.5.3.5.5,0,1.8,0,2.2-.2.8-.6.8c-.7,0-.7-.8-.7-1.3Z"/>
  </g>
</svg>