<?xml version="1.0" encoding="UTF-8"?>
<svg id="Layer_1" xmlns="http://www.w3.org/2000/svg" version="1.1" viewBox="0 0 118.1 165.4">
  <!-- Generator: Adobe Illustrator 29.0.0, SVG Export Plug-In . SVG Version: 2.1.0 Build 186)  -->
  <defs>
    <style>
      .st0 {
        fill: #202020;
      }

      .st1 {
        stroke-width: 3px;
      }

      .st1, .st2 {
        fill: #6479e2;
      }

      .st1, .st3 {
        stroke: #6479e2;
        stroke-miterlimit: 10;
      }

      .st3 {
        fill: none;
        stroke-width: 10px;
      }
    </style>
  </defs>
  <circle class="st2" cx="59.3" cy="13.4" r="10.2"/>
  <circle class="st3" cx="59.3" cy="105.8" r="49.3"/>
  <line class="st1" x1="59.3" y1="22.1" x2="59.3" y2="52.7"/>
  <g>
    <path class="st0" d="M78.5,84.3v6.3h-1.6v26.7h-16.5l9.3,12.9c.2.6.1,1-.4,1.2h-.4l-.5-.3-8.7-12v11.4c0,.3-.3.8-.6.9h-.4c-.3-.1-.6-.5-.6-.9v-11.4l-8.7,12-.5.3h-.4c-.6-.2-.7-.7-.4-1.2l9.3-12.9h-16.5v-26.7h-1.6v-6.3h39.2ZM77,85.9h-36v3.1h36v-3.1ZM75.4,90.6h-32.9v25.1h32.9v-25.1Z"/>
    <path class="st0" d="M51.9,93.8c3.3.3,5.9,3,6.3,6.2.7,0,1.7-.2,1.6.9s-1,.7-1.6.7c-.7,5.4-7.2,8.2-11.5,4.7-4.9-4-2.5-11.7,3.6-12.5-.3-2.1,1.9-2.2,1.6,0ZM56.6,101.6h-5.5c-.2,0-.8-.4-.8-.7v-5.6c-5,.8-6.5,7.5-2.1,10.1s7.7,0,8.3-3.9ZM56.5,100c-.2-2.4-2.3-4.3-4.6-4.7v4.7h4.6Z"/>
    <path class="st0" d="M62.3,110.5c.9-1,2.2,1.4,2.9,1.7l5.7-5.6c.9-.7,1.9.4,1.1,1.2-2.1,1.8-3.9,4.3-6,6s-.7.6-1.2.2-2.2-2.1-2.4-2.4-.4-.7,0-1.1Z"/>
    <rect class="st0" x="47.2" y="109.4" width="11.8" height="1.6"/>
    <rect class="st0" x="47.2" y="112.5" width="11.8" height="1.6"/>
    <rect class="st0" x="64.5" y="93.7" width="9.4" height="1.6"/>
    <rect class="st0" x="64.5" y="96.9" width="9.4" height="1.6"/>
    <rect class="st0" x="64.5" y="100" width="9.4" height="1.6"/>
    <rect class="st0" x="64.5" y="103.2" width="9.4" height="1.6"/>
    <rect class="st0" x="61.4" y="103.2" width="1.6" height="1.6"/>
    <rect class="st0" x="44.1" y="109.4" width="1.6" height="1.6"/>
    <rect class="st0" x="44.1" y="112.5" width="1.6" height="1.6"/>
    <polygon class="st0" points="62.9 95.3 61.4 95.3 61.4 93.7 62.8 93.7 62.9 93.8 62.9 95.3"/>
    <polygon class="st0" points="62.9 96.9 62.9 98.3 62.8 98.5 61.4 98.5 61.4 96.9 62.9 96.9"/>
    <polygon class="st0" points="62.9 100 62.9 101.5 62.8 101.6 61.4 101.6 61.4 100 62.9 100"/>
  </g>
</svg>