<?xml version="1.0" encoding="UTF-8"?>
<svg id="Layer_1" xmlns="http://www.w3.org/2000/svg" version="1.1" viewBox="0 0 118.1 165.4">
  <!-- Generator: Adobe Illustrator 29.0.0, SVG Export Plug-In . SVG Version: 2.1.0 Build 186)  -->
  <defs>
    <style>
      .st0 {
        fill: none;
        stroke-width: 10px;
      }

      .st0, .st1 {
        stroke: #65e0c3;
        stroke-miterlimit: 10;
      }

      .st1 {
        fill: #6479e2;
        stroke-width: 3px;
      }

      .st2 {
        fill: #202020;
      }

      .st3 {
        fill: #65e0c3;
      }
    </style>
  </defs>
  <circle class="st3" cx="59.3" cy="13.4" r="10.2"/>
  <circle class="st0" cx="59.3" cy="105.8" r="49.3"/>
  <line class="st1" x1="59.3" y1="22.1" x2="59.3" y2="52.7"/>
  <g>
    <path class="st2" d="M59.5,103.9c-.4.5-.6,1.4-.4,2.6,0,.4.2.9.4,1.3.2.5.4,1,.4,1.5.1,1,0,2.2,0,3.3,0,1-.1,2,0,2.9v.5s-.5,0-.5,0h-24.3v9.7h50.4v-9.7h-24.8v-.5c.2-.9.1-2,0-3,0-1.2-.2-2.5,0-3.5,0-.5.3-.8.5-1,.2-.3.5-.6.4-1.6,0-1.8-.9-2.8-1.6-2.8v-.2h0v.2c-.2,0-.5.1-.7.3ZM83.9,117.5h.6v.5c-.3.9-.2,1.7-.2,2.6,0,1,.1,2.1-.2,3.2v.3h-47.7v-6.6h47.5Z"/>
    <path class="st2" d="M63.8,100.4c.4-.1,1.3-.5,2-.9,1.2-.6,1.8-.9,2.1-.9,0,0,0,0,.1,0,1.8.3,4.2,2.7,5,4.3.1.2,1.1,3,1.1,3.4v5.7h-10.9v1.5h12.4v-7.2c0-2.3-2.3-6.1-4.1-7.5-.8-.6-3.5-2.1-4.2-2.1-.1,0-.5.3-.8.5-.8.5-1.7,1.2-2.3,1.4-1.3.5-2.5.7-3.7.7s-2.6-.3-3.9-.8c-.9-.4-1.5-.8-1.9-1.2-.5-.4-.7-.5-1.1-.5s-1,.2-1.8.5c-2.9,1.3-6.7,5.7-6.7,8.9v7.2h12.4v-1.5h-10.9v-5.7c0-2,2.4-5.3,4-6.5,1.1-.8,1.8-1.1,2.6-1.1.7,0,1.3.3,1.9.7.6.3,1.2.7,2.1,1,1.2.3,2.2.5,3.2.5s2.1-.2,3.3-.5Z"/>
    <path class="st2" d="M60.5,77h0c-.5,0-1.1,0-1.7.1-5.9.8-8.3,5.9-8,10.3.3,4.5,3.4,9,9.5,9s1.1,0,1.6-.1c2.6-.3,4.8-1.5,6.2-3.5,1.3-1.8,1.9-4.1,1.7-6.5-.3-4.5-3.3-9.3-9.4-9.3ZM68.1,89.3c-1.1,3.4-4.2,5.6-7.8,5.6s-5.6-1.5-7-4c-1.4-2.3-1.5-5.3-.3-7.8,1.2-2.4,3.4-4.1,6-4.5.4,0,.9,0,1.3,0,2.7,0,5.2,1.2,6.7,3.4,1.5,2.1,1.9,4.8,1.1,7.4Z"/>
  </g>
</svg>