<?xml version="1.0" encoding="UTF-8"?>
<svg id="Layer_1" xmlns="http://www.w3.org/2000/svg" version="1.1" viewBox="0 0 200 200">
  <!-- Generator: Adobe Illustrator 29.0.0, SVG Export Plug-In . SVG Version: 2.1.0 Build 186)  -->
  <defs>
    <style>
      .st0 {
        fill: #fff;
      }

      .st1 {
        fill: #e01414;
      }
    </style>
  </defs>
  <circle class="st1" cx="100" cy="100" r="69.9"/>
  <path class="st0" d="M111.4,100l13.5-13.3c3.1-3.1,3.2-8.2,0-11.3-3.1-3.1-8.2-3.2-11.3,0l-13.6,13.5-13.6-13.5c-3.1-3.1-8.2-3.1-11.3,0-3.1,3.1-3.1,8.2,0,11.3l13.5,13.3-13.5,13.3c-3.1,3.1-3.2,8.2,0,11.3,1.6,1.6,3.6,2.4,5.7,2.4s4.1-.8,5.6-2.3l13.6-13.5,13.6,13.5c1.6,1.5,3.6,2.3,5.6,2.3s4.1-.8,5.7-2.4c3.1-3.1,3.1-8.2,0-11.3l-13.5-13.3Z"/>
</svg>